<svg xmlns="http://www.w3.org/2000/svg" xmlns:xlink="http://www.w3.org/1999/xlink" viewBox="0 0 500 500"><defs><style>.cls-1{fill:none;}.cls-2{clip-path:url(#clip-path);}.cls-3,.cls-8{fill:#fff;}.cls-3{stroke:#262262;stroke-width:10px;}.cls-10,.cls-3{stroke-miterlimit:10;}.cls-4{clip-path:url(#clip-path-2);}.cls-5{clip-path:url(#clip-path-3);}.cls-6{clip-path:url(#clip-path-4);}.cls-7{fill:url(#Wave_Navy);}.cls-10,.cls-9{fill:#231f20;}.cls-10{stroke:#231f20;stroke-width:3px;}</style><clipPath id="clip-path"><rect class="cls-1" x="999.58" y="906.67" width="1000" height="1000"/></clipPath><clipPath id="clip-path-2"><rect class="cls-1" x="-0.42" y="906.67" width="1000" height="1000"/></clipPath><clipPath id="clip-path-3"><rect class="cls-1" x="999.58" y="-93.33" width="1000" height="1000"/></clipPath><clipPath id="clip-path-4"><rect class="cls-1" x="-0.42" y="-93.33" width="1000" height="1000"/></clipPath><pattern id="Wave_Navy" data-name="Wave_Navy" width="1000" height="1000" patternTransform="translate(1755.9 2632.02)" patternUnits="userSpaceOnUse" viewBox="0 0 1000 1000"><rect class="cls-1" width="1000" height="1000"/><g class="cls-2"><circle class="cls-3" cx="1000" cy="968.75" r="125"/><circle class="cls-3" cx="1000" cy="967.92" r="104.17"/><circle class="cls-3" cx="1000" cy="967.92" r="83.33"/><circle class="cls-3" cx="1000" cy="967.92" r="62.5"/><circle class="cls-3" cx="1000" cy="967.92" r="41.67"/><circle class="cls-3" cx="1000" cy="967.92" r="20.83"/><circle class="cls-3" cx="1125" cy="1031.25" r="125"/><circle class="cls-3" cx="1000" cy="1093.75" r="125"/><circle class="cls-3" cx="1000" cy="1092.92" r="104.17"/></g><g class="cls-4"><circle class="cls-3" cy="968.75" r="125"/><circle class="cls-3" cy="967.92" r="104.17"/><circle class="cls-3" cy="967.92" r="83.33"/><circle class="cls-3" cy="967.92" r="62.5"/><circle class="cls-3" cy="967.92" r="41.67"/><circle class="cls-3" cy="967.92" r="20.83"/><circle class="cls-3" cx="250" cy="968.75" r="125"/><circle class="cls-3" cx="250" cy="967.92" r="104.17"/><circle class="cls-3" cx="250" cy="967.92" r="83.33"/><circle class="cls-3" cx="250" cy="967.92" r="62.5"/><circle class="cls-3" cx="250" cy="967.92" r="41.67"/><circle class="cls-3" cx="250" cy="967.92" r="20.83"/><circle class="cls-3" cx="500" cy="968.75" r="125"/><circle class="cls-3" cx="500" cy="967.92" r="104.17"/><circle class="cls-3" cx="500" cy="967.92" r="83.33"/><circle class="cls-3" cx="500" cy="967.92" r="62.5"/><circle class="cls-3" cx="500" cy="967.92" r="41.67"/><circle class="cls-3" cx="500" cy="967.92" r="20.83"/><circle class="cls-3" cx="750" cy="968.75" r="125"/><circle class="cls-3" cx="750" cy="967.92" r="104.17"/><circle class="cls-3" cx="750" cy="967.92" r="83.33"/><circle class="cls-3" cx="750" cy="967.92" r="62.5"/><circle class="cls-3" cx="750" cy="967.92" r="41.67"/><circle class="cls-3" cx="750" cy="967.92" r="20.83"/><circle class="cls-3" cx="1000" cy="968.75" r="125"/><circle class="cls-3" cx="1000" cy="967.92" r="104.17"/><circle class="cls-3" cx="1000" cy="967.92" r="83.33"/><circle class="cls-3" cx="1000" cy="967.92" r="62.5"/><circle class="cls-3" cx="1000" cy="967.92" r="41.67"/><circle class="cls-3" cx="1000" cy="967.92" r="20.83"/><circle class="cls-3" cx="125" cy="1031.25" r="125"/><circle class="cls-3" cx="125" cy="1030.42" r="104.17"/><circle class="cls-3" cx="125" cy="1030.42" r="83.33"/><circle class="cls-3" cx="125" cy="1030.42" r="62.5"/><circle class="cls-3" cx="125" cy="1030.42" r="41.67"/><circle class="cls-3" cx="375" cy="1031.25" r="125"/><circle class="cls-3" cx="375" cy="1030.42" r="104.17"/><circle class="cls-3" cx="375" cy="1030.42" r="83.33"/><circle class="cls-3" cx="375" cy="1030.42" r="62.5"/><circle class="cls-3" cx="375" cy="1030.42" r="41.67"/><circle class="cls-3" cx="625" cy="1031.25" r="125"/><circle class="cls-3" cx="625" cy="1030.42" r="104.17"/><circle class="cls-3" cx="625" cy="1030.42" r="83.33"/><circle class="cls-3" cx="625" cy="1030.42" r="62.5"/><circle class="cls-3" cx="625" cy="1030.42" r="41.67"/><circle class="cls-3" cx="875" cy="1031.25" r="125"/><circle class="cls-3" cx="875" cy="1030.42" r="104.17"/><circle class="cls-3" cx="875" cy="1030.42" r="83.33"/><circle class="cls-3" cx="875" cy="1030.42" r="62.5"/><circle class="cls-3" cx="875" cy="1030.42" r="41.67"/><circle class="cls-3" cy="1093.75" r="125"/><circle class="cls-3" cy="1092.92" r="104.17"/><circle class="cls-3" cx="250" cy="1093.75" r="125"/><circle class="cls-3" cx="250" cy="1092.92" r="104.17"/><circle class="cls-3" cx="500" cy="1093.75" r="125"/><circle class="cls-3" cx="500" cy="1092.92" r="104.17"/><circle class="cls-3" cx="750" cy="1093.75" r="125"/><circle class="cls-3" cx="750" cy="1092.92" r="104.17"/><circle class="cls-3" cx="1000" cy="1093.75" r="125"/><circle class="cls-3" cx="1000" cy="1092.92" r="104.17"/></g><g class="cls-5"><circle class="cls-3" cx="1000" cy="-31.25" r="125"/><circle class="cls-3" cx="1000" cy="-32.08" r="104.17"/><circle class="cls-3" cx="1000" cy="-32.08" r="83.33"/><circle class="cls-3" cx="1000" cy="-32.08" r="62.5"/><circle class="cls-3" cx="1000" cy="-32.08" r="41.67"/><circle class="cls-3" cx="1125" cy="31.25" r="125"/><circle class="cls-3" cx="1000" cy="93.75" r="125"/><circle class="cls-3" cx="1000" cy="92.92" r="104.17"/><circle class="cls-3" cx="1000" cy="92.92" r="83.33"/><circle class="cls-3" cx="1000" cy="92.92" r="62.5"/><circle class="cls-3" cx="1000" cy="92.92" r="41.67"/><circle class="cls-3" cx="1000" cy="92.92" r="20.83"/><circle class="cls-3" cx="1125" cy="156.25" r="125"/><circle class="cls-3" cx="1000" cy="218.75" r="125"/><circle class="cls-3" cx="1000" cy="217.92" r="104.17"/><circle class="cls-3" cx="1000" cy="217.92" r="83.33"/><circle class="cls-3" cx="1000" cy="217.92" r="62.5"/><circle class="cls-3" cx="1000" cy="217.92" r="41.67"/><circle class="cls-3" cx="1000" cy="217.92" r="20.83"/><circle class="cls-3" cx="1125" cy="281.25" r="125"/><circle class="cls-3" cx="1000" cy="343.75" r="125"/><circle class="cls-3" cx="1000" cy="342.92" r="104.17"/><circle class="cls-3" cx="1000" cy="342.92" r="83.33"/><circle class="cls-3" cx="1000" cy="342.92" r="62.5"/><circle class="cls-3" cx="1000" cy="342.92" r="41.67"/><circle class="cls-3" cx="1000" cy="342.92" r="20.83"/><circle class="cls-3" cx="1125" cy="406.25" r="125"/><circle class="cls-3" cx="1000" cy="468.75" r="125"/><circle class="cls-3" cx="1000" cy="467.92" r="104.17"/><circle class="cls-3" cx="1000" cy="467.92" r="83.33"/><circle class="cls-3" cx="1000" cy="467.92" r="62.5"/><circle class="cls-3" cx="1000" cy="467.92" r="41.67"/><circle class="cls-3" cx="1000" cy="467.92" r="20.83"/><circle class="cls-3" cx="1125" cy="531.25" r="125"/><circle class="cls-3" cx="1000" cy="593.75" r="125"/><circle class="cls-3" cx="1000" cy="592.92" r="104.17"/><circle class="cls-3" cx="1000" cy="592.92" r="83.33"/><circle class="cls-3" cx="1000" cy="592.92" r="62.5"/><circle class="cls-3" cx="1000" cy="592.92" r="41.67"/><circle class="cls-3" cx="1000" cy="592.92" r="20.83"/><circle class="cls-3" cx="1125" cy="656.25" r="125"/><circle class="cls-3" cx="1000" cy="718.75" r="125"/><circle class="cls-3" cx="1000" cy="717.92" r="104.17"/><circle class="cls-3" cx="1000" cy="717.92" r="83.33"/><circle class="cls-3" cx="1000" cy="717.92" r="62.5"/><circle class="cls-3" cx="1000" cy="717.92" r="41.67"/><circle class="cls-3" cx="1000" cy="717.92" r="20.83"/><circle class="cls-3" cx="1125" cy="781.25" r="125"/><circle class="cls-3" cx="1000" cy="843.75" r="125"/><circle class="cls-3" cx="1000" cy="842.92" r="104.17"/><circle class="cls-3" cx="1000" cy="842.92" r="83.33"/><circle class="cls-3" cx="1000" cy="842.92" r="62.5"/><circle class="cls-3" cx="1000" cy="842.92" r="41.67"/><circle class="cls-3" cx="1000" cy="842.92" r="20.83"/><circle class="cls-3" cx="1125" cy="906.25" r="125"/><circle class="cls-3" cx="1000" cy="968.75" r="125"/><circle class="cls-3" cx="1000" cy="967.92" r="104.17"/><circle class="cls-3" cx="1000" cy="967.92" r="83.33"/><circle class="cls-3" cx="1000" cy="967.92" r="62.5"/><circle class="cls-3" cx="1000" cy="967.92" r="41.67"/><circle class="cls-3" cx="1000" cy="967.92" r="20.83"/><circle class="cls-3" cx="1125" cy="1031.25" r="125"/></g><g class="cls-6"><circle class="cls-3" cy="-31.25" r="125"/><circle class="cls-3" cy="-32.08" r="104.17"/><circle class="cls-3" cy="-32.08" r="83.33"/><circle class="cls-3" cy="-32.08" r="62.5"/><circle class="cls-3" cy="-32.08" r="41.67"/><circle class="cls-3" cy="-32.08" r="20.83"/><circle class="cls-3" cx="250" cy="-31.25" r="125"/><circle class="cls-3" cx="250" cy="-32.08" r="104.17"/><circle class="cls-3" cx="250" cy="-32.08" r="83.33"/><circle class="cls-3" cx="250" cy="-32.08" r="62.5"/><circle class="cls-3" cx="250" cy="-32.08" r="41.67"/><circle class="cls-3" cx="250" cy="-32.08" r="20.83"/><circle class="cls-3" cx="500" cy="-31.25" r="125"/><circle class="cls-3" cx="500" cy="-32.08" r="104.17"/><circle class="cls-3" cx="500" cy="-32.08" r="83.33"/><circle class="cls-3" cx="500" cy="-32.08" r="62.5"/><circle class="cls-3" cx="500" cy="-32.08" r="41.67"/><circle class="cls-3" cx="500" cy="-32.08" r="20.83"/><circle class="cls-3" cx="750" cy="-31.25" r="125"/><circle class="cls-3" cx="750" cy="-32.08" r="104.17"/><circle class="cls-3" cx="750" cy="-32.08" r="83.33"/><circle class="cls-3" cx="750" cy="-32.08" r="62.5"/><circle class="cls-3" cx="750" cy="-32.08" r="41.67"/><circle class="cls-3" cx="750" cy="-32.08" r="20.83"/><circle class="cls-3" cx="1000" cy="-31.25" r="125"/><circle class="cls-3" cx="1000" cy="-32.08" r="104.17"/><circle class="cls-3" cx="1000" cy="-32.08" r="83.33"/><circle class="cls-3" cx="1000" cy="-32.08" r="62.5"/><circle class="cls-3" cx="1000" cy="-32.08" r="41.67"/><circle class="cls-3" cx="1000" cy="-32.08" r="20.83"/><circle class="cls-3" cx="125" cy="31.25" r="125"/><circle class="cls-3" cx="125" cy="30.42" r="104.17"/><circle class="cls-3" cx="125" cy="30.42" r="83.33"/><circle class="cls-3" cx="125" cy="30.42" r="62.5"/><circle class="cls-3" cx="125" cy="30.42" r="41.67"/><circle class="cls-3" cx="125" cy="30.42" r="20.83"/><circle class="cls-3" cx="375" cy="31.25" r="125"/><circle class="cls-3" cx="375" cy="30.42" r="104.17"/><circle class="cls-3" cx="375" cy="30.42" r="83.33"/><circle class="cls-3" cx="375" cy="30.42" r="62.5"/><circle class="cls-3" cx="375" cy="30.42" r="41.67"/><circle class="cls-3" cx="375" cy="30.42" r="20.83"/><circle class="cls-3" cx="625" cy="31.25" r="125"/><circle class="cls-3" cx="625" cy="30.42" r="104.17"/><circle class="cls-3" cx="625" cy="30.42" r="83.33"/><circle class="cls-3" cx="625" cy="30.42" r="62.5"/><circle class="cls-3" cx="625" cy="30.42" r="41.67"/><circle class="cls-3" cx="625" cy="30.42" r="20.83"/><circle class="cls-3" cx="875" cy="31.25" r="125"/><circle class="cls-3" cx="875" cy="30.42" r="104.17"/><circle class="cls-3" cx="875" cy="30.42" r="83.33"/><circle class="cls-3" cx="875" cy="30.42" r="62.5"/><circle class="cls-3" cx="875" cy="30.42" r="41.67"/><circle class="cls-3" cx="875" cy="30.42" r="20.83"/><circle class="cls-3" cy="93.75" r="125"/><circle class="cls-3" cy="92.92" r="104.17"/><circle class="cls-3" cy="92.92" r="83.33"/><circle class="cls-3" cy="92.92" r="62.5"/><circle class="cls-3" cy="92.92" r="41.67"/><circle class="cls-3" cy="92.92" r="20.83"/><circle class="cls-3" cx="250" cy="93.75" r="125"/><circle class="cls-3" cx="250" cy="92.92" r="104.17"/><circle class="cls-3" cx="250" cy="92.92" r="83.33"/><circle class="cls-3" cx="250" cy="92.92" r="62.5"/><circle class="cls-3" cx="250" cy="92.92" r="41.67"/><circle class="cls-3" cx="250" cy="92.92" r="20.83"/><circle class="cls-3" cx="500" cy="93.75" r="125"/><circle class="cls-3" cx="500" cy="92.92" r="104.17"/><circle class="cls-3" cx="500" cy="92.92" r="83.33"/><circle class="cls-3" cx="500" cy="92.92" r="62.5"/><circle class="cls-3" cx="500" cy="92.92" r="41.67"/><circle class="cls-3" cx="500" cy="92.92" r="20.83"/><circle class="cls-3" cx="750" cy="93.75" r="125"/><circle class="cls-3" cx="750" cy="92.92" r="104.17"/><circle class="cls-3" cx="750" cy="92.92" r="83.33"/><circle class="cls-3" cx="750" cy="92.92" r="62.5"/><circle class="cls-3" cx="750" cy="92.92" r="41.67"/><circle class="cls-3" cx="750" cy="92.92" r="20.83"/><circle class="cls-3" cx="1000" cy="93.75" r="125"/><circle class="cls-3" cx="1000" cy="92.92" r="104.17"/><circle class="cls-3" cx="1000" cy="92.92" r="83.33"/><circle class="cls-3" cx="1000" cy="92.92" r="62.5"/><circle class="cls-3" cx="1000" cy="92.92" r="41.67"/><circle class="cls-3" cx="1000" cy="92.92" r="20.83"/><circle class="cls-3" cx="125" cy="156.25" r="125"/><circle class="cls-3" cx="125" cy="155.42" r="104.17"/><circle class="cls-3" cx="125" cy="155.42" r="83.33"/><circle class="cls-3" cx="125" cy="155.42" r="62.5"/><circle class="cls-3" cx="125" cy="155.42" r="41.67"/><circle class="cls-3" cx="125" cy="155.42" r="20.83"/><circle class="cls-3" cx="375" cy="156.25" r="125"/><circle class="cls-3" cx="375" cy="155.42" r="104.17"/><circle class="cls-3" cx="375" cy="155.42" r="83.33"/><circle class="cls-3" cx="375" cy="155.42" r="62.5"/><circle class="cls-3" cx="375" cy="155.42" r="41.67"/><circle class="cls-3" cx="375" cy="155.42" r="20.83"/><circle class="cls-3" cx="625" cy="156.25" r="125"/><circle class="cls-3" cx="625" cy="155.42" r="104.17"/><circle class="cls-3" cx="625" cy="155.42" r="83.33"/><circle class="cls-3" cx="625" cy="155.42" r="62.5"/><circle class="cls-3" cx="625" cy="155.42" r="41.67"/><circle class="cls-3" cx="625" cy="155.42" r="20.83"/><circle class="cls-3" cx="875" cy="156.25" r="125"/><circle class="cls-3" cx="875" cy="155.42" r="104.17"/><circle class="cls-3" cx="875" cy="155.42" r="83.33"/><circle class="cls-3" cx="875" cy="155.42" r="62.5"/><circle class="cls-3" cx="875" cy="155.42" r="41.67"/><circle class="cls-3" cx="875" cy="155.42" r="20.83"/><circle class="cls-3" cy="218.75" r="125"/><circle class="cls-3" cy="217.92" r="104.17"/><circle class="cls-3" cy="217.92" r="83.33"/><circle class="cls-3" cy="217.92" r="62.5"/><circle class="cls-3" cy="217.92" r="41.67"/><circle class="cls-3" cy="217.92" r="20.83"/><circle class="cls-3" cx="250" cy="218.75" r="125"/><circle class="cls-3" cx="250" cy="217.92" r="104.17"/><circle class="cls-3" cx="250" cy="217.92" r="83.33"/><circle class="cls-3" cx="250" cy="217.92" r="62.5"/><circle class="cls-3" cx="250" cy="217.92" r="41.67"/><circle class="cls-3" cx="250" cy="217.92" r="20.83"/><circle class="cls-3" cx="500" cy="218.75" r="125"/><circle class="cls-3" cx="500" cy="217.92" r="104.17"/><circle class="cls-3" cx="500" cy="217.92" r="83.33"/><circle class="cls-3" cx="500" cy="217.92" r="62.5"/><circle class="cls-3" cx="500" cy="217.92" r="41.67"/><circle class="cls-3" cx="500" cy="217.92" r="20.83"/><circle class="cls-3" cx="750" cy="218.75" r="125"/><circle class="cls-3" cx="750" cy="217.92" r="104.17"/><circle class="cls-3" cx="750" cy="217.92" r="83.33"/><circle class="cls-3" cx="750" cy="217.92" r="62.5"/><circle class="cls-3" cx="750" cy="217.92" r="41.67"/><circle class="cls-3" cx="750" cy="217.92" r="20.83"/><circle class="cls-3" cx="1000" cy="218.75" r="125"/><circle class="cls-3" cx="1000" cy="217.92" r="104.17"/><circle class="cls-3" cx="1000" cy="217.92" r="83.33"/><circle class="cls-3" cx="1000" cy="217.92" r="62.5"/><circle class="cls-3" cx="1000" cy="217.92" r="41.67"/><circle class="cls-3" cx="1000" cy="217.92" r="20.83"/><circle class="cls-3" cx="125" cy="281.25" r="125"/><circle class="cls-3" cx="125" cy="280.42" r="104.17"/><circle class="cls-3" cx="125" cy="280.42" r="83.33"/><circle class="cls-3" cx="125" cy="280.42" r="62.5"/><circle class="cls-3" cx="125" cy="280.42" r="41.67"/><circle class="cls-3" cx="125" cy="280.42" r="20.83"/><circle class="cls-3" cx="375" cy="281.25" r="125"/><circle class="cls-3" cx="375" cy="280.42" r="104.17"/><circle class="cls-3" cx="375" cy="280.42" r="83.33"/><circle class="cls-3" cx="375" cy="280.42" r="62.5"/><circle class="cls-3" cx="375" cy="280.42" r="41.67"/><circle class="cls-3" cx="375" cy="280.42" r="20.83"/><circle class="cls-3" cx="625" cy="281.25" r="125"/><circle class="cls-3" cx="625" cy="280.42" r="104.17"/><circle class="cls-3" cx="625" cy="280.42" r="83.33"/><circle class="cls-3" cx="625" cy="280.42" r="62.5"/><circle class="cls-3" cx="625" cy="280.42" r="41.67"/><circle class="cls-3" cx="625" cy="280.42" r="20.83"/><circle class="cls-3" cx="875" cy="281.25" r="125"/><circle class="cls-3" cx="875" cy="280.42" r="104.17"/><circle class="cls-3" cx="875" cy="280.42" r="83.33"/><circle class="cls-3" cx="875" cy="280.42" r="62.5"/><circle class="cls-3" cx="875" cy="280.42" r="41.67"/><circle class="cls-3" cx="875" cy="280.42" r="20.83"/><circle class="cls-3" cy="343.75" r="125"/><circle class="cls-3" cy="342.92" r="104.17"/><circle class="cls-3" cy="342.92" r="83.33"/><circle class="cls-3" cy="342.92" r="62.5"/><circle class="cls-3" cy="342.92" r="41.67"/><circle class="cls-3" cy="342.92" r="20.83"/><circle class="cls-3" cx="250" cy="343.75" r="125"/><circle class="cls-3" cx="250" cy="342.92" r="104.17"/><circle class="cls-3" cx="250" cy="342.92" r="83.33"/><circle class="cls-3" cx="250" cy="342.92" r="62.5"/><circle class="cls-3" cx="250" cy="342.92" r="41.67"/><circle class="cls-3" cx="250" cy="342.92" r="20.83"/><circle class="cls-3" cx="500" cy="343.75" r="125"/><circle class="cls-3" cx="500" cy="342.92" r="104.17"/><circle class="cls-3" cx="500" cy="342.92" r="83.33"/><circle class="cls-3" cx="500" cy="342.92" r="62.5"/><circle class="cls-3" cx="500" cy="342.92" r="41.67"/><circle class="cls-3" cx="500" cy="342.92" r="20.83"/><circle class="cls-3" cx="750" cy="343.75" r="125"/><circle class="cls-3" cx="750" cy="342.92" r="104.17"/><circle class="cls-3" cx="750" cy="342.92" r="83.33"/><circle class="cls-3" cx="750" cy="342.92" r="62.5"/><circle class="cls-3" cx="750" cy="342.92" r="41.67"/><circle class="cls-3" cx="750" cy="342.92" r="20.83"/><circle class="cls-3" cx="1000" cy="343.75" r="125"/><circle class="cls-3" cx="1000" cy="342.92" r="104.17"/><circle class="cls-3" cx="1000" cy="342.92" r="83.33"/><circle class="cls-3" cx="1000" cy="342.92" r="62.5"/><circle class="cls-3" cx="1000" cy="342.92" r="41.67"/><circle class="cls-3" cx="1000" cy="342.92" r="20.83"/><circle class="cls-3" cx="125" cy="406.25" r="125"/><circle class="cls-3" cx="125" cy="405.42" r="104.17"/><circle class="cls-3" cx="125" cy="405.42" r="83.33"/><circle class="cls-3" cx="125" cy="405.42" r="62.5"/><circle class="cls-3" cx="125" cy="405.42" r="41.67"/><circle class="cls-3" cx="125" cy="405.42" r="20.83"/><circle class="cls-3" cx="375" cy="406.25" r="125"/><circle class="cls-3" cx="375" cy="405.42" r="104.17"/><circle class="cls-3" cx="375" cy="405.42" r="83.33"/><circle class="cls-3" cx="375" cy="405.42" r="62.5"/><circle class="cls-3" cx="375" cy="405.42" r="41.67"/><circle class="cls-3" cx="375" cy="405.42" r="20.83"/><circle class="cls-3" cx="625" cy="406.25" r="125"/><circle class="cls-3" cx="625" cy="405.42" r="104.17"/><circle class="cls-3" cx="625" cy="405.42" r="83.33"/><circle class="cls-3" cx="625" cy="405.42" r="62.5"/><circle class="cls-3" cx="625" cy="405.42" r="41.67"/><circle class="cls-3" cx="625" cy="405.42" r="20.83"/><circle class="cls-3" cx="875" cy="406.25" r="125"/><circle class="cls-3" cx="875" cy="405.42" r="104.17"/><circle class="cls-3" cx="875" cy="405.42" r="83.33"/><circle class="cls-3" cx="875" cy="405.42" r="62.5"/><circle class="cls-3" cx="875" cy="405.42" r="41.67"/><circle class="cls-3" cx="875" cy="405.42" r="20.83"/><circle class="cls-3" cy="468.75" r="125"/><circle class="cls-3" cy="467.92" r="104.17"/><circle class="cls-3" cy="467.92" r="83.33"/><circle class="cls-3" cy="467.92" r="62.5"/><circle class="cls-3" cy="467.92" r="41.67"/><circle class="cls-3" cy="467.92" r="20.83"/><circle class="cls-3" cx="250" cy="468.75" r="125"/><circle class="cls-3" cx="250" cy="467.92" r="104.17"/><circle class="cls-3" cx="250" cy="467.92" r="83.33"/><circle class="cls-3" cx="250" cy="467.92" r="62.5"/><circle class="cls-3" cx="250" cy="467.92" r="41.67"/><circle class="cls-3" cx="250" cy="467.92" r="20.83"/><circle class="cls-3" cx="500" cy="468.75" r="125"/><circle class="cls-3" cx="500" cy="467.92" r="104.17"/><circle class="cls-3" cx="500" cy="467.92" r="83.33"/><circle class="cls-3" cx="500" cy="467.92" r="62.5"/><circle class="cls-3" cx="500" cy="467.92" r="41.67"/><circle class="cls-3" cx="500" cy="467.92" r="20.83"/><circle class="cls-3" cx="750" cy="468.75" r="125"/><circle class="cls-3" cx="750" cy="467.92" r="104.17"/><circle class="cls-3" cx="750" cy="467.92" r="83.33"/><circle class="cls-3" cx="750" cy="467.92" r="62.5"/><circle class="cls-3" cx="750" cy="467.92" r="41.67"/><circle class="cls-3" cx="750" cy="467.92" r="20.83"/><circle class="cls-3" cx="1000" cy="468.75" r="125"/><circle class="cls-3" cx="1000" cy="467.92" r="104.17"/><circle class="cls-3" cx="1000" cy="467.92" r="83.33"/><circle class="cls-3" cx="1000" cy="467.92" r="62.5"/><circle class="cls-3" cx="1000" cy="467.92" r="41.67"/><circle class="cls-3" cx="1000" cy="467.92" r="20.83"/><circle class="cls-3" cx="125" cy="531.25" r="125"/><circle class="cls-3" cx="125" cy="530.42" r="104.17"/><circle class="cls-3" cx="125" cy="530.42" r="83.33"/><circle class="cls-3" cx="125" cy="530.42" r="62.5"/><circle class="cls-3" cx="125" cy="530.42" r="41.67"/><circle class="cls-3" cx="125" cy="530.42" r="20.83"/><circle class="cls-3" cx="375" cy="531.25" r="125"/><circle class="cls-3" cx="375" cy="530.42" r="104.17"/><circle class="cls-3" cx="375" cy="530.42" r="83.33"/><circle class="cls-3" cx="375" cy="530.42" r="62.5"/><circle class="cls-3" cx="375" cy="530.42" r="41.67"/><circle class="cls-3" cx="375" cy="530.42" r="20.83"/><circle class="cls-3" cx="625" cy="531.25" r="125"/><circle class="cls-3" cx="625" cy="530.42" r="104.17"/><circle class="cls-3" cx="625" cy="530.42" r="83.33"/><circle class="cls-3" cx="625" cy="530.42" r="62.5"/><circle class="cls-3" cx="625" cy="530.42" r="41.67"/><circle class="cls-3" cx="625" cy="530.42" r="20.83"/><circle class="cls-3" cx="875" cy="531.25" r="125"/><circle class="cls-3" cx="875" cy="530.42" r="104.17"/><circle class="cls-3" cx="875" cy="530.42" r="83.33"/><circle class="cls-3" cx="875" cy="530.42" r="62.5"/><circle class="cls-3" cx="875" cy="530.42" r="41.67"/><circle class="cls-3" cx="875" cy="530.42" r="20.83"/><circle class="cls-3" cy="593.75" r="125"/><circle class="cls-3" cy="592.92" r="104.17"/><circle class="cls-3" cy="592.92" r="83.33"/><circle class="cls-3" cy="592.92" r="62.5"/><circle class="cls-3" cy="592.92" r="41.67"/><circle class="cls-3" cy="592.92" r="20.83"/><circle class="cls-3" cx="250" cy="593.75" r="125"/><circle class="cls-3" cx="250" cy="592.92" r="104.17"/><circle class="cls-3" cx="250" cy="592.92" r="83.33"/><circle class="cls-3" cx="250" cy="592.92" r="62.5"/><circle class="cls-3" cx="250" cy="592.92" r="41.67"/><circle class="cls-3" cx="250" cy="592.92" r="20.83"/><circle class="cls-3" cx="500" cy="593.75" r="125"/><circle class="cls-3" cx="500" cy="592.92" r="104.17"/><circle class="cls-3" cx="500" cy="592.92" r="83.33"/><circle class="cls-3" cx="500" cy="592.92" r="62.5"/><circle class="cls-3" cx="500" cy="592.92" r="41.67"/><circle class="cls-3" cx="500" cy="592.92" r="20.83"/><circle class="cls-3" cx="750" cy="593.75" r="125"/><circle class="cls-3" cx="750" cy="592.92" r="104.17"/><circle class="cls-3" cx="750" cy="592.92" r="83.33"/><circle class="cls-3" cx="750" cy="592.92" r="62.5"/><circle class="cls-3" cx="750" cy="592.92" r="41.67"/><circle class="cls-3" cx="750" cy="592.92" r="20.83"/><circle class="cls-3" cx="1000" cy="593.75" r="125"/><circle class="cls-3" cx="1000" cy="592.92" r="104.17"/><circle class="cls-3" cx="1000" cy="592.92" r="83.33"/><circle class="cls-3" cx="1000" cy="592.92" r="62.5"/><circle class="cls-3" cx="1000" cy="592.92" r="41.67"/><circle class="cls-3" cx="1000" cy="592.92" r="20.83"/><circle class="cls-3" cx="125" cy="656.25" r="125"/><circle class="cls-3" cx="125" cy="655.42" r="104.17"/><circle class="cls-3" cx="125" cy="655.42" r="83.33"/><circle class="cls-3" cx="125" cy="655.42" r="62.5"/><circle class="cls-3" cx="125" cy="655.42" r="41.67"/><circle class="cls-3" cx="125" cy="655.42" r="20.83"/><circle class="cls-3" cx="375" cy="656.25" r="125"/><circle class="cls-3" cx="375" cy="655.42" r="104.17"/><circle class="cls-3" cx="375" cy="655.42" r="83.33"/><circle class="cls-3" cx="375" cy="655.42" r="62.5"/><circle class="cls-3" cx="375" cy="655.42" r="41.67"/><circle class="cls-3" cx="375" cy="655.42" r="20.83"/><circle class="cls-3" cx="625" cy="656.25" r="125"/><circle class="cls-3" cx="625" cy="655.42" r="104.17"/><circle class="cls-3" cx="625" cy="655.42" r="83.33"/><circle class="cls-3" cx="625" cy="655.42" r="62.5"/><circle class="cls-3" cx="625" cy="655.42" r="41.67"/><circle class="cls-3" cx="625" cy="655.42" r="20.83"/><circle class="cls-3" cx="875" cy="656.25" r="125"/><circle class="cls-3" cx="875" cy="655.42" r="104.17"/><circle class="cls-3" cx="875" cy="655.42" r="83.33"/><circle class="cls-3" cx="875" cy="655.42" r="62.5"/><circle class="cls-3" cx="875" cy="655.42" r="41.67"/><circle class="cls-3" cx="875" cy="655.42" r="20.83"/><circle class="cls-3" cy="718.75" r="125"/><circle class="cls-3" cy="717.92" r="104.17"/><circle class="cls-3" cy="717.92" r="83.33"/><circle class="cls-3" cy="717.92" r="62.5"/><circle class="cls-3" cy="717.92" r="41.67"/><circle class="cls-3" cy="717.92" r="20.83"/><circle class="cls-3" cx="250" cy="718.75" r="125"/><circle class="cls-3" cx="250" cy="717.92" r="104.17"/><circle class="cls-3" cx="250" cy="717.92" r="83.33"/><circle class="cls-3" cx="250" cy="717.92" r="62.5"/><circle class="cls-3" cx="250" cy="717.92" r="41.67"/><circle class="cls-3" cx="250" cy="717.92" r="20.83"/><circle class="cls-3" cx="500" cy="718.75" r="125"/><circle class="cls-3" cx="500" cy="717.92" r="104.17"/><circle class="cls-3" cx="500" cy="717.92" r="83.33"/><circle class="cls-3" cx="500" cy="717.92" r="62.5"/><circle class="cls-3" cx="500" cy="717.92" r="41.67"/><circle class="cls-3" cx="500" cy="717.92" r="20.83"/><circle class="cls-3" cx="750" cy="718.75" r="125"/><circle class="cls-3" cx="750" cy="717.92" r="104.17"/><circle class="cls-3" cx="750" cy="717.92" r="83.33"/><circle class="cls-3" cx="750" cy="717.92" r="62.5"/><circle class="cls-3" cx="750" cy="717.92" r="41.67"/><circle class="cls-3" cx="750" cy="717.92" r="20.83"/><circle class="cls-3" cx="1000" cy="718.75" r="125"/><circle class="cls-3" cx="1000" cy="717.92" r="104.17"/><circle class="cls-3" cx="1000" cy="717.92" r="83.33"/><circle class="cls-3" cx="1000" cy="717.92" r="62.5"/><circle class="cls-3" cx="1000" cy="717.92" r="41.67"/><circle class="cls-3" cx="1000" cy="717.92" r="20.83"/><circle class="cls-3" cx="125" cy="781.25" r="125"/><circle class="cls-3" cx="125" cy="780.42" r="104.17"/><circle class="cls-3" cx="125" cy="780.42" r="83.33"/><circle class="cls-3" cx="125" cy="780.42" r="62.5"/><circle class="cls-3" cx="125" cy="780.42" r="41.67"/><circle class="cls-3" cx="125" cy="780.42" r="20.83"/><circle class="cls-3" cx="375" cy="781.25" r="125"/><circle class="cls-3" cx="375" cy="780.42" r="104.17"/><circle class="cls-3" cx="375" cy="780.42" r="83.33"/><circle class="cls-3" cx="375" cy="780.42" r="62.5"/><circle class="cls-3" cx="375" cy="780.42" r="41.67"/><circle class="cls-3" cx="375" cy="780.42" r="20.83"/><circle class="cls-3" cx="625" cy="781.25" r="125"/><circle class="cls-3" cx="625" cy="780.42" r="104.17"/><circle class="cls-3" cx="625" cy="780.42" r="83.33"/><circle class="cls-3" cx="625" cy="780.42" r="62.5"/><circle class="cls-3" cx="625" cy="780.42" r="41.67"/><circle class="cls-3" cx="625" cy="780.42" r="20.83"/><circle class="cls-3" cx="875" cy="781.25" r="125"/><circle class="cls-3" cx="875" cy="780.42" r="104.17"/><circle class="cls-3" cx="875" cy="780.42" r="83.33"/><circle class="cls-3" cx="875" cy="780.42" r="62.5"/><circle class="cls-3" cx="875" cy="780.42" r="41.67"/><circle class="cls-3" cx="875" cy="780.42" r="20.83"/><circle class="cls-3" cy="843.75" r="125"/><circle class="cls-3" cy="842.92" r="104.17"/><circle class="cls-3" cy="842.92" r="83.33"/><circle class="cls-3" cy="842.92" r="62.5"/><circle class="cls-3" cy="842.92" r="41.67"/><circle class="cls-3" cy="842.92" r="20.83"/><circle class="cls-3" cx="250" cy="843.75" r="125"/><circle class="cls-3" cx="250" cy="842.92" r="104.17"/><circle class="cls-3" cx="250" cy="842.92" r="83.33"/><circle class="cls-3" cx="250" cy="842.92" r="62.5"/><circle class="cls-3" cx="250" cy="842.92" r="41.67"/><circle class="cls-3" cx="250" cy="842.92" r="20.83"/><circle class="cls-3" cx="500" cy="843.75" r="125"/><circle class="cls-3" cx="500" cy="842.92" r="104.17"/><circle class="cls-3" cx="500" cy="842.92" r="83.33"/><circle class="cls-3" cx="500" cy="842.92" r="62.5"/><circle class="cls-3" cx="500" cy="842.92" r="41.67"/><circle class="cls-3" cx="500" cy="842.92" r="20.83"/><circle class="cls-3" cx="750" cy="843.75" r="125"/><circle class="cls-3" cx="750" cy="842.92" r="104.17"/><circle class="cls-3" cx="750" cy="842.92" r="83.33"/><circle class="cls-3" cx="750" cy="842.92" r="62.5"/><circle class="cls-3" cx="750" cy="842.92" r="41.67"/><circle class="cls-3" cx="750" cy="842.92" r="20.83"/><circle class="cls-3" cx="1000" cy="843.75" r="125"/><circle class="cls-3" cx="1000" cy="842.92" r="104.17"/><circle class="cls-3" cx="1000" cy="842.92" r="83.33"/><circle class="cls-3" cx="1000" cy="842.92" r="62.5"/><circle class="cls-3" cx="1000" cy="842.92" r="41.67"/><circle class="cls-3" cx="1000" cy="842.92" r="20.83"/><circle class="cls-3" cx="125" cy="906.25" r="125"/><circle class="cls-3" cx="125" cy="905.42" r="104.17"/><circle class="cls-3" cx="125" cy="905.42" r="83.33"/><circle class="cls-3" cx="125" cy="905.42" r="62.5"/><circle class="cls-3" cx="125" cy="905.42" r="41.67"/><circle class="cls-3" cx="125" cy="905.42" r="20.83"/><circle class="cls-3" cx="375" cy="906.25" r="125"/><circle class="cls-3" cx="375" cy="905.42" r="104.17"/><circle class="cls-3" cx="375" cy="905.42" r="83.33"/><circle class="cls-3" cx="375" cy="905.42" r="62.5"/><circle class="cls-3" cx="375" cy="905.42" r="41.67"/><circle class="cls-3" cx="375" cy="905.42" r="20.83"/><circle class="cls-3" cx="625" cy="906.25" r="125"/><circle class="cls-3" cx="625" cy="905.42" r="104.17"/><circle class="cls-3" cx="625" cy="905.42" r="83.33"/><circle class="cls-3" cx="625" cy="905.42" r="62.5"/><circle class="cls-3" cx="625" cy="905.42" r="41.67"/><circle class="cls-3" cx="625" cy="905.42" r="20.83"/><circle class="cls-3" cx="875" cy="906.25" r="125"/><circle class="cls-3" cx="875" cy="905.42" r="104.17"/><circle class="cls-3" cx="875" cy="905.42" r="83.33"/><circle class="cls-3" cx="875" cy="905.42" r="62.5"/><circle class="cls-3" cx="875" cy="905.42" r="41.67"/><circle class="cls-3" cx="875" cy="905.42" r="20.83"/><circle class="cls-3" cy="968.75" r="125"/><circle class="cls-3" cy="967.92" r="104.17"/><circle class="cls-3" cy="967.92" r="83.33"/><circle class="cls-3" cy="967.92" r="62.5"/><circle class="cls-3" cy="967.92" r="41.67"/><circle class="cls-3" cy="967.92" r="20.83"/><circle class="cls-3" cx="250" cy="968.75" r="125"/><circle class="cls-3" cx="250" cy="967.92" r="104.17"/><circle class="cls-3" cx="250" cy="967.92" r="83.33"/><circle class="cls-3" cx="250" cy="967.92" r="62.5"/><circle class="cls-3" cx="250" cy="967.92" r="41.67"/><circle class="cls-3" cx="250" cy="967.92" r="20.83"/><circle class="cls-3" cx="500" cy="968.75" r="125"/><circle class="cls-3" cx="500" cy="967.92" r="104.17"/><circle class="cls-3" cx="500" cy="967.92" r="83.33"/><circle class="cls-3" cx="500" cy="967.92" r="62.5"/><circle class="cls-3" cx="500" cy="967.92" r="41.67"/><circle class="cls-3" cx="500" cy="967.92" r="20.83"/><circle class="cls-3" cx="750" cy="968.75" r="125"/><circle class="cls-3" cx="750" cy="967.92" r="104.17"/><circle class="cls-3" cx="750" cy="967.92" r="83.33"/><circle class="cls-3" cx="750" cy="967.92" r="62.5"/><circle class="cls-3" cx="750" cy="967.92" r="41.67"/><circle class="cls-3" cx="750" cy="967.92" r="20.83"/><circle class="cls-3" cx="1000" cy="968.75" r="125"/><circle class="cls-3" cx="1000" cy="967.92" r="104.17"/><circle class="cls-3" cx="1000" cy="967.92" r="83.33"/><circle class="cls-3" cx="1000" cy="967.92" r="62.5"/><circle class="cls-3" cx="1000" cy="967.92" r="41.67"/><circle class="cls-3" cx="1000" cy="967.92" r="20.83"/><circle class="cls-3" cx="125" cy="1031.25" r="125"/><circle class="cls-3" cx="125" cy="1030.42" r="104.17"/><circle class="cls-3" cx="125" cy="1030.42" r="83.33"/><circle class="cls-3" cx="125" cy="1030.42" r="62.5"/><circle class="cls-3" cx="125" cy="1030.42" r="41.67"/><circle class="cls-3" cx="125" cy="1030.42" r="20.83"/><circle class="cls-3" cx="375" cy="1031.25" r="125"/><circle class="cls-3" cx="375" cy="1030.42" r="104.17"/><circle class="cls-3" cx="375" cy="1030.42" r="83.33"/><circle class="cls-3" cx="375" cy="1030.42" r="62.5"/><circle class="cls-3" cx="375" cy="1030.42" r="41.67"/><circle class="cls-3" cx="375" cy="1030.42" r="20.83"/><circle class="cls-3" cx="625" cy="1031.25" r="125"/><circle class="cls-3" cx="625" cy="1030.42" r="104.17"/><circle class="cls-3" cx="625" cy="1030.42" r="83.33"/><circle class="cls-3" cx="625" cy="1030.42" r="62.5"/><circle class="cls-3" cx="625" cy="1030.42" r="41.67"/><circle class="cls-3" cx="625" cy="1030.42" r="20.83"/><circle class="cls-3" cx="875" cy="1031.25" r="125"/><circle class="cls-3" cx="875" cy="1030.42" r="104.17"/><circle class="cls-3" cx="875" cy="1030.42" r="83.33"/><circle class="cls-3" cx="875" cy="1030.42" r="62.5"/><circle class="cls-3" cx="875" cy="1030.42" r="41.67"/><circle class="cls-3" cx="875" cy="1030.42" r="20.83"/></g></pattern></defs><g id="Layer_2" data-name="Layer 2"><g id="Layer_7" data-name="Layer 7"><rect class="cls-7" width="500" height="500"/><rect class="cls-8" x="173.86" y="96" width="152.27" height="308"/><path class="cls-9" d="M322.14,100V400H177.86V100H322.14m8-8H169.86V408H330.14V92Z"/><path class="cls-10" d="M225.49,144.92l7.4,6.94q-4.17,1.84-12,13.87v59.2l-6.47,3.24q.45-11.56.46-19.89V172.67a210.31,210.31,0,0,1-16.65,16.65l-.93-1.39a185,185,0,0,0,12.26-16q6.24-9,9-13.65T225.49,144.92Zm-3.7-23.59,7.86,6.48q-3.71,1.84-11.56,11.1a114.71,114.71,0,0,1-19,17.57l-.92-1.39a147.17,147.17,0,0,0,14.8-18A84.35,84.35,0,0,0,221.79,121.33Zm6,90.65,6.47-1.38q0-26.37-.46-36.08l9.25,4.62-3.24,2.78v27.75l9.25-2.31V167.12h-12l-4.16.92-3.7-3.7h19.88V143.53H242.6a134.79,134.79,0,0,1-9.25,16.65l-1.39-.92a149.39,149.39,0,0,0,7.63-22.44,118.13,118.13,0,0,0,3-15.49l8.79,4.16q-3.24,3.24-7.87,15.27h15.27l5.09-5.09,7.86,7.86H254.63v20.81h6l5.09-5.08,7.86,7.86h-19v16.19h6l4.62-4.63,7.4,7.4h-18V206l17.11-4.16.46,1.85q-35.16,11.1-39.78,16.19Zm55.5-9.25c2.47.31,4.78.55,6.94.7s3.24-1.31,3.24-4.4V141.68H281V225.4l-6.48,2.77q.47-12.48.47-50.41t-.47-43l6.48,4.17h12l2.78-4.63,6.94,5.09-3.7,3.24v60.12q0,6-7.4,9.25,0-5.08-8.33-7.4Z"/><path class="cls-10" d="M267.58,357.31q12,.93,15.26.69c2.15-.15,3.24-2.23,3.24-6.24V328.17h-31q0,29.59.46,35.15l-6.94,3.24q.46-26.37.46-38.39H218.55a75.1,75.1,0,0,1-19.43,42.09l-1.38-.93a94.34,94.34,0,0,0,12-29.14Q213,325.4,213,299.49t-.46-34.22l6.93,4.62h66.14l3.24-5.09,7.4,5.55-3.7,3.7V355q.46,11.56-10.17,14.8-.94-7.86-14.8-10.17Zm-48.11-56.43q-.47,19.42-.92,24.51h30.52V300.88Zm0-28.21V298.1h29.6V272.67Zm35.62,0V298.1h31V272.67Zm0,28.21v24.51h31V300.88Z"/></g></g></svg>